PathFileType	4	(X/Y/Z)	c:/Users/goper/Files/vsCode/490R/osim_files/C06/C06_Slow_02.trc
DataRate	CameraRate	NumFrames	NumMarkers	Units                	OrigDataRate	OrigDataStartFrame	OrigNumFrames
250.00	250.00	9	36	mm	250.0	1856	3710
                Frame#	Time	LPSIS			LASIS			LTH1			LTH2			LTH3			LTH4			LLFE			LMFE			LSH1			LSH2			LSH3			LSH4			LLMAL			LMMAL			LCAL			LMTP5			LTOE			LMTP1			RPSIS			RASIS			RTH1			RTH2			RTH3			RTH4			RLFE			RMFE			RSH1			RSH2			RSH3			RSH4			RLMAL			RMMAL			RCAL			RMTP1			RTOE			RMTP5		
		X1	Y1	Z1	X2	Y2	Z2	X3	Y3	Z3	X4	Y4	Z4	X5	Y5	Z5	X6	Y6	Z6	X7	Y7	Z7	X8	Y8	Z8	X9	Y9	Z9	X10	Y10	Z10	X11	Y11	Z11	X12	Y12	Z12	X13	Y13	Z13	X14	Y14	Z14	X15	Y15	Z15	X16	Y16	Z16	X17	Y17	Z17	X18	Y18	Z18	X19	Y19	Z19	X20	Y20	Z20	X21	Y21	Z21	X22	Y22	Z22	X23	Y23	Z23	X24	Y24	Z24	X25	Y25	Z25	X26	Y26	Z26	X27	Y27	Z27	X28	Y28	Z28	X29	Y29	Z29	X30	Y30	Z30	X31	Y31	Z31	X32	Y32	Z32	X33	Y33	Z33	X34	Y34	Z34	X35	Y35	Z35	X36	Y36	Z36

1856	7.42000	-55.23818	1009.91620	193.41988	-230.09872	988.15247	290.73816	-189.81161	780.13391	364.51984	-215.36807	721.23145	366.66708	-261.80222	799.79364	345.15720	-277.63669	741.85004	350.00769	-279.20969	480.78693	333.77304	-287.48050	458.80637	217.65121	-159.98645	439.61099	338.18195	-137.18280	402.04541	334.90317	-209.78236	398.54639	346.38074	-178.28273	368.19641	341.26038	8.95775	212.28900	285.18909	-26.43591	221.65927	212.71835	56.84124	247.17369	229.37424	-9.44763	87.51009	310.20358	-73.41377	66.16887	256.74008	-52.56205	77.28886	205.42772	-52.60782	1010.42841	122.49158	-236.20787	989.14294	52.69358	-162.50677	782.59979	-23.25565	-178.45287	721.23932	-13.51467	-236.95375	795.48505	-9.29419	-240.16307	733.93420	-5.11927	-211.79530	456.65613	49.18732	-221.01830	476.03043	155.60280	-154.57480	381.96811	32.30407	-153.79211	333.90067	34.92062	-214.04025	372.68549	45.63874	-205.10342	327.18329	46.29359	-149.48198	89.93602	94.05146	-159.70183	114.24589	169.92455	-79.55736	67.41952	139.30458	0.00000	0.00000	0.00000	-305.81528	54.94375	137.77296	-261.50500	33.78634	69.23409
1857	7.42400	-59.07865	1010.12616	193.51422	-233.74281	988.97778	290.32605	-195.02957	780.93402	364.56039	-220.68181	722.19525	366.53104	-268.23657	801.77930	345.79181	-281.13922	742.41315	348.96182	-287.64941	482.18576	333.55475	-295.60727	460.70123	217.34061	-168.71599	439.12936	338.17865	-146.63441	401.27063	334.79449	-219.64433	398.78372	346.11804	-188.33763	367.86307	341.09970	-3.24413	209.56952	285.04276	-37.98432	219.38550	212.55440	45.62877	242.84610	228.99413	-24.62841	85.56207	311.13269	-89.07775	65.19736	257.84225	-67.88799	75.55756	206.47888	-56.53215	1010.38452	122.61409	-239.80246	989.34503	52.48627	-165.29195	782.88300	-23.24157	-180.88823	721.49158	-13.53351	-237.85580	795.98077	-10.06178	-242.61234	733.90887	-5.21036	-211.86977	456.74133	48.93446	-222.01593	476.00092	155.28896	-154.26891	382.05548	32.48241	-153.31465	334.15814	34.87745	-213.77103	372.72870	45.14459	-204.64346	327.26703	45.83891	-149.54306	89.96372	93.99847	-159.81822	114.43287	169.82892	-79.60692	67.48516	139.31102	0.00000	0.00000	0.00000	-305.91776	54.90259	137.81425	-261.50595	33.73728	69.20396
1858	7.42800	-62.72837	1010.39178	193.51134	-238.04543	989.85010	290.12836	-200.22375	781.66376	364.62997	-226.42572	722.93512	366.78577	-272.65485	802.94928	345.46167	-287.57373	743.96796	349.36417	-295.64001	483.70834	333.19473	-303.78952	462.69324	217.00882	-177.09361	438.74539	338.01340	-155.64102	399.73468	334.52344	-229.03032	398.99225	345.80734	-197.73965	367.79837	341.03439	-15.28731	206.75340	284.93652	-50.06521	216.87192	212.42485	34.04279	238.30768	228.49913	-39.84597	83.60970	312.02383	-105.00324	64.17661	259.17313	-83.74996	73.73456	207.55046	-60.18260	1010.45978	122.59784	-243.32585	989.51184	52.19402	-168.00941	783.17004	-23.29394	-183.26038	721.72675	-13.60075	-241.59888	795.75085	-9.99130	-242.88007	734.82007	-6.61073	-211.95187	456.80252	48.63688	-222.56807	476.04456	154.98610	-153.89670	382.27930	32.43206	-152.95013	334.26501	34.81053	-213.52393	372.75647	44.62780	-204.26442	327.26971	45.45129	-149.59686	89.99015	93.95948	-159.97594	114.56868	169.75688	-79.60302	67.55661	139.26431	0.00000	0.00000	0.00000	-306.18494	54.70522	138.19391	-261.52002	33.67225	69.16288
1859	7.43200	-66.33633	1010.59143	193.46979	-241.58951	990.54181	289.73560	-205.19037	782.41968	364.68771	-231.83353	723.91034	366.72580	-277.01904	803.91534	345.38620	-292.78708	745.23651	349.36682	-303.44397	485.16962	332.87622	-311.50369	464.51266	216.69978	-186.71910	436.93033	338.55179	-165.05775	398.53000	334.06390	-240.26418	400.54727	344.00949	-209.23239	368.02081	339.59607	-27.53343	203.87093	284.80463	-62.16632	214.35020	212.30388	22.77485	233.73859	228.11472	-55.17207	81.65123	312.91730	-120.59084	63.20140	260.03506	-98.81339	72.03717	208.41299	-63.83147	1010.54218	122.60287	-246.90828	989.63037	51.93854	-170.65678	783.44159	-23.34241	-185.64793	721.94397	-13.66585	-244.40607	795.68640	-10.09164	-245.19034	734.74567	-6.74343	-212.03639	456.89160	48.33408	-223.06409	476.08502	154.71317	-153.49802	382.52896	32.36650	-152.50238	334.46210	34.70937	-213.11952	372.88834	44.07830	-203.85663	327.34164	44.95907	-149.65002	90.00715	93.91008	-160.08742	114.69724	169.68039	-79.35854	67.62277	139.08229	0.00000	0.00000	0.00000	-306.06723	54.78115	137.94873	-261.49600	33.63388	69.13165
1860	7.43600	-70.02673	1010.75085	193.44460	-245.27237	991.26672	289.37518	-210.23260	783.10620	364.79221	-237.33420	724.75629	366.72260	-281.82797	805.07318	345.44434	-297.62811	746.40222	349.05359	-311.06973	486.77747	332.86423	-319.36499	466.38556	216.33873	-195.22610	436.17325	338.42120	-174.29706	397.27921	333.86066	-249.36902	400.57275	343.72644	-218.98048	367.64771	339.18982	-39.86007	200.84033	284.74564	-74.10220	211.70299	211.93161	11.14499	228.85248	227.80144	-70.86462	79.75286	313.82895	-136.78996	62.51550	261.18158	-114.60490	70.35903	209.57585	-67.53871	1010.45831	122.61159	-250.47742	989.69043	51.77772	-173.36844	783.75177	-23.44290	-188.12585	722.12225	-13.75087	-247.16531	795.57977	-10.11681	-247.47778	734.76361	-6.92447	-212.16954	457.00702	48.01099	-223.69278	476.07556	154.35841	-153.24255	382.70969	32.28192	-152.10028	334.67023	34.60003	-212.79688	372.95468	43.51085	-203.47383	327.43298	44.43483	-149.60809	90.45487	93.53605	-160.29228	114.82580	169.63278	-79.58913	67.84577	139.13380	0.00000	0.00000	0.00000	-306.03595	54.76817	137.86780	-261.48846	33.56085	69.09638
1861	7.44000	-73.77132	1010.77631	193.50314	-249.00015	991.97656	289.01471	-215.29025	783.73047	364.88373	-242.87337	725.58453	366.69775	-286.78333	806.13800	345.47583	-303.44070	747.78918	349.16754	-318.81894	488.12701	332.49384	-327.00345	468.22977	216.00027	-203.71359	435.33807	338.38623	-183.50101	396.10126	333.72278	-258.39716	400.57669	343.43039	-228.75577	367.19040	338.84235	-52.42173	197.65872	284.65216	-85.99176	209.39276	211.31374	-0.58476	223.76122	227.46675	-86.77700	77.81288	314.77774	-152.91974	61.67234	262.10272	-129.91309	68.74572	210.54346	-71.18139	1010.43799	122.61737	-253.98840	989.72870	51.60102	-175.99623	784.03461	-23.59540	-190.62411	722.27246	-13.84359	-249.80019	795.49951	-10.15286	-249.87379	734.68384	-7.05677	-212.30058	457.07629	47.71154	-224.36861	476.04346	153.99927	-153.00414	382.89841	32.18323	-151.74940	334.88132	34.49125	-212.58559	372.99741	43.04550	-203.15463	327.30560	44.32900	-149.60654	90.21478	93.63027	-160.32506	114.89854	169.56461	-79.62392	67.87077	139.12289	0.00000	0.00000	0.00000	-306.03928	54.74267	137.81105	-261.48013	33.50575	69.04663
1862	7.44400	-77.44193	1010.85132	193.46120	-252.76343	992.63324	288.67581	-221.13918	783.76599	364.92053	-248.15315	726.35730	366.68179	-291.63065	807.24017	345.53873	-308.67377	748.95129	349.21658	-326.38300	489.46634	332.15167	-334.57553	470.00491	215.57413	-212.17587	434.47516	338.23233	-193.09138	395.48569	333.72714	-267.29489	400.56476	343.11420	-238.33534	366.85934	338.47107	-65.14185	194.42511	284.54321	-98.36559	206.57767	211.20467	-12.38902	218.66293	227.21648	-102.86129	76.00177	315.68582	-169.23184	61.14727	262.97952	-146.03654	66.88786	211.07251	-74.88053	1010.33588	122.63004	-257.46771	989.78143	51.42463	-178.82817	784.23047	-23.70876	-192.99036	722.47766	-13.99213	-252.59187	795.33972	-10.04544	-252.30539	734.61694	-7.16451	-212.46729	457.18018	47.44799	-224.97145	476.05695	153.71303	-152.83226	383.10620	32.10012	-151.48610	335.10001	34.36286	-212.37926	373.06494	42.58960	-202.96442	327.44577	43.89586	-149.66924	90.12472	93.67620	-160.45711	115.03490	169.49098	-79.65959	67.91353	139.14917	0.00000	0.00000	0.00000	-306.05542	54.76382	137.74886	-261.44818	33.32442	69.11796
1863	7.44800	-81.08279	1010.86206	193.50536	-256.46124	993.16064	288.45099	-225.12575	784.91864	365.03183	-253.54602	727.02246	366.63654	-296.48691	808.32416	345.45786	-313.91467	750.17181	349.12961	-333.93158	490.80881	331.76193	-341.78882	471.70425	215.20946	-220.59077	433.57751	338.14117	-201.82623	393.69519	333.44751	-276.22626	400.53299	342.70566	-248.10194	366.22913	338.07404	-77.76282	191.33858	284.73993	-110.83737	203.67938	211.04927	-24.41115	213.26759	227.03534	-119.17864	74.17808	316.56143	-185.48473	60.22301	263.55890	-161.51657	64.86014	211.56143	-78.48536	1010.23016	122.68230	-261.19226	989.76471	51.25552	-182.04243	784.29376	-23.64287	-195.46181	722.57294	-14.11952	-255.24564	795.17230	-9.92716	-254.60919	734.55145	-7.24758	-212.66025	457.26038	47.15469	-225.71582	476.03610	153.30405	-152.68291	383.33984	31.98890	-151.26723	335.33768	34.21701	-212.30821	373.13928	42.15347	-202.79947	327.57071	43.48311	-149.69122	90.13643	93.64577	-160.55841	115.13866	169.42464	-79.53895	68.20419	138.99419	0.00000	0.00000	0.00000	-306.05289	54.75136	137.68167	-261.43463	33.26875	69.07240
1864	7.45200	-84.73090	1010.84259	193.51277	-260.26053	993.67920	288.12866	-230.05647	785.41724	365.12744	-258.78732	727.73163	366.57306	-301.31955	809.24683	345.70444	-319.14359	751.20465	348.99338	-341.43964	491.86691	331.27356	-349.21414	473.37149	214.78067	-228.99890	432.72421	337.99548	-211.27206	393.10675	333.46158	-285.02798	400.54501	342.30496	-257.54199	365.73807	337.70938	-90.61443	187.86249	284.64569	-123.44376	200.69051	210.93179	-36.55114	207.77257	226.74249	-135.51605	72.40887	317.43280	-202.35399	60.19241	264.72009	-178.38353	63.56529	212.64680	-82.06274	1010.15295	122.68891	-264.54388	989.70868	51.05602	-185.08781	784.35590	-23.69632	-197.83743	722.69391	-14.43165	-257.98068	795.00067	-9.76160	-256.82294	734.47131	-7.36139	-212.89073	457.33951	46.88852	-226.49184	476.17450	152.84949	-152.65373	383.53818	31.91086	-151.16318	335.54007	34.11510	-212.31807	373.25583	41.70800	-202.67328	327.67603	43.10180	-149.71703	90.18706	93.62706	-160.66083	115.22105	169.36058	-79.46693	68.29326	139.01698	0.00000	0.00000	0.00000	-306.04822	54.74153	137.61917	-261.43039	33.21989	69.04337
